<svg xmlns="http://www.w3.org/2000/svg" id="Cutouts" viewBox="0 0 263.65 356.07"><defs><style>.cls-1{fill:#39b54a}.cls-2{fill:#f7941d}.cls-3{fill:#662d91}.cls-4{fill:#00aeef}.cls-5{fill:#fff200}.cls-6{fill:#ec008c}.cls-7{fill:#ed1c24}.cls-8{fill:#2e3192}</style></defs><title>front_panel</title><circle cx="253.73" cy="43.55" r="9.92" class="cls-1"/><circle cx="253.73" cy="130.48" r="9.92" class="cls-1"/><circle cx="253.73" cy="217.4" r="9.92" class="cls-1"/><circle cx="253.73" cy="304.33" r="9.92" class="cls-1"/><circle cx="21.13" cy="43.55" r="9.92" class="cls-1"/><circle cx="8.53" cy="307.17" r="8.5" class="cls-2"/><circle cx="42.55" cy="307.17" r="8.5" class="cls-2"/><circle cx="76.56" cy="307.17" r="8.5" class="cls-2"/><circle cx="110.58" cy="307.17" r="8.5" class="cls-2"/><circle cx="144.59" cy="307.17" r="8.5" class="cls-2"/><circle cx="178.61" cy="307.17" r="8.5" class="cls-2"/><rect width="106.58" height="53.86" x="68.62" y="26.54" class="cls-3" rx="2.83"/><circle cx="15.62" cy="265.38" r="13.46" class="cls-4"/><circle cx="106.66" cy="265.38" r="13.46" class="cls-4"/><circle cx="38.77" cy="131.25" r="4.25" class="cls-5"/><circle cx="9.21" cy="131.25" r="4.25" class="cls-5"/><circle cx="68.24" cy="131.25" r="4.25" class="cls-5"/><circle cx="97.77" cy="131.25" r="4.25" class="cls-5"/><circle cx="38.78" cy="175.18" r="4.25" class="cls-5"/><circle cx="9.22" cy="175.18" r="4.25" class="cls-5"/><circle cx="68.25" cy="175.18" r="4.25" class="cls-5"/><circle cx="97.77" cy="175.18" r="4.25" class="cls-5"/><circle cx="156.89" cy="131.25" r="4.25" class="cls-5"/><circle cx="127.33" cy="131.25" r="4.25" class="cls-5"/><circle cx="186.35" cy="131.25" r="4.25" class="cls-5"/><circle cx="215.88" cy="131.25" r="4.25" class="cls-5"/><circle cx="156.89" cy="175.18" r="4.25" class="cls-5"/><circle cx="127.33" cy="175.18" r="4.25" class="cls-5"/><circle cx="186.36" cy="175.18" r="4.25" class="cls-5"/><circle cx="215.89" cy="175.18" r="4.25" class="cls-5"/><circle cx="198.19" cy="263.49" r="7.09" class="cls-6"/><circle cx="201.4" cy="307.17" r="7.09" class="cls-6"/><circle cx="9.21" cy="151.83" r="9.21" class="cls-7"/><circle cx="38.77" cy="151.83" r="9.21" class="cls-7"/><circle cx="68.38" cy="151.83" r="9.21" class="cls-7"/><circle cx="97.94" cy="151.83" r="9.21" class="cls-7"/><circle cx="9.21" cy="100.95" r="9.21" class="cls-7"/><circle cx="131.13" cy="100.95" r="9.21" class="cls-7"/><circle cx="65.93" cy="100.95" r="9.21" class="cls-7"/><circle cx="187.75" cy="100.95" r="9.21" class="cls-7"/><circle cx="172.23" cy="263.94" r="9.21" class="cls-7"/><circle cx="9.26" cy="195.77" r="9.21" class="cls-7"/><circle cx="38.82" cy="195.77" r="9.21" class="cls-7"/><circle cx="68.43" cy="195.77" r="9.21" class="cls-7"/><circle cx="97.99" cy="195.77" r="9.21" class="cls-7"/><circle cx="127.38" cy="151.83" r="9.21" class="cls-7"/><circle cx="156.94" cy="151.83" r="9.21" class="cls-7"/><circle cx="186.55" cy="151.83" r="9.21" class="cls-7"/><circle cx="216.11" cy="151.83" r="9.21" class="cls-7"/><circle cx="127.43" cy="195.77" r="9.21" class="cls-7"/><circle cx="156.99" cy="195.77" r="9.21" class="cls-7"/><circle cx="186.6" cy="195.77" r="9.21" class="cls-7"/><circle cx="216.16" cy="195.77" r="9.21" class="cls-7"/><rect width="14.17" height="9.07" x="2.96" y="346.99" class="cls-8" rx="4.54"/><rect width="14.17" height="9.07" x="246.45" y="346.99" class="cls-8" rx="4.54"/><rect width="14.17" height="9.07" x="2.96" class="cls-8" rx="4.54"/><rect width="14.17" height="9.07" x="246.45" class="cls-8" rx="4.54"/></svg>